<!--?xml version="1.0" encoding="utf-8"?-->
<!-- Generator: Adobe Illustrator 18.1.1, SVG Export Plug-In . SVG Version: 6.00 Build 0)  -->

<svg version="1.1" id="_x32_" xmlns="http://www.w3.org/2000/svg" xmlns:xlink="http://www.w3.org/1999/xlink" x="0px" y="0px" viewBox="0 0 512 512" style="width: 256px; height: 256px; opacity: 1;" xml:space="preserve">
<style type="text/css">
	.st0{fill:#4B4B4B;}
</style>
<g>
	<polygon class="st0" points="179.754,130.165 163.414,154.427 348.602,154.427 332.246,130.165 297.75,130.165 297.75,0 214.25,0 
		214.25,130.165 	" style="fill: rgb(75, 75, 75);"></polygon>
	<path class="st0" d="M467.42,179.39l-78.738-98.631c-2.518-3.152-6.337-5.001-10.362-5.001h-66.663v26.557h60.274l62.072,77.769
		H77.997l62.089-77.769h60.257V75.758h-66.646c-4.042,0-7.861,1.85-10.379,5.001L44.58,179.39c-1.884,2.356-2.912,5.267-2.912,8.273
		v311.062c0,3.494,1.422,6.911,3.905,9.395c2.467,2.466,5.875,3.88,9.386,3.88h402.098c3.494,0,6.92-1.414,9.37-3.88
		c2.484-2.484,3.905-5.901,3.905-9.395V187.663C470.332,184.657,469.304,181.746,467.42,179.39z M256.008,226.21
		c4.145,0,7.502-3.375,7.502-7.519v-5.481c1.986,0.908,3.802,2.124,5.326,3.657c3.306,3.297,5.327,7.81,5.327,12.846v15.33h-36.329
		v-15.33c0-5.036,2.021-9.548,5.328-12.846c1.524-1.533,3.339-2.749,5.326-3.657v5.481
		C248.489,222.835,251.846,226.21,256.008,226.21z M263.939,308.082h-7.023h-1.85h-7.005l2.209-19.971
		c-4.128-2.107-6.988-6.346-6.988-11.305c0-7.005,5.704-12.709,12.726-12.709c7.005,0,12.709,5.704,12.709,12.709
		c0,4.959-2.86,9.198-6.988,11.305L263.939,308.082z M443.783,485.443H68.234V195.251h180.256v4.428
		c-13.48,3.374-23.466,15.51-23.466,30.034v15.398c-8.581,0.36-15.449,7.382-15.449,16.057v56.078
		c0,8.898,7.211,16.126,16.118,16.126h60.616c8.906,0,16.118-7.228,16.118-16.126v-56.078c0-8.675-6.868-15.698-15.449-16.057
		v-15.398c0-14.524-9.986-26.66-23.466-30.034v-4.428h180.272V485.443z" style="fill: rgb(75, 75, 75);"></path>
</g>
</svg>
