<?xml version="1.0" encoding="UTF-8" standalone="no"?>
<!-- Created with Inkscape (http://www.inkscape.org/) -->

<svg
   width="535.22321"
   height="678.71582"
   version="1.1"
  <g
     id="layer1"
     transform="translate(-366.67411,-321.57571)">
    <path
       style="fill:#000000;"
       d="m 368.09651,827.42594 c -0.1677,2.90615 -0.1801,6.04516 -1.4224,7.3394 1.2911,1.48239 1.9067,3.86535 1.5213,7.58307 26.2784,-3.1473 44.9791,1.26076 69.329,0.42344 1.3176,-0.0453 5.6171,-1.096 11.2957,-1.11449 9.2598,1.03199 22.0852,3.67074 31.3449,9.69232 9.4551,0.0439 14.9668,-0.13846 16.1978,8.67779 24.0306,7.29192 44.4362,-0.13201 41.0445,8.76601 l -37.5261,34.68944 c -5.5912,-3.934 -6.6309,-4.86393 -12.6736,-19.34907 -3.757,-9.00605 -10.8332,4.54067 -13.93,8.25939 2.222,-1.2154 6.6443,-3.50327 9.1418,-2.49132 6.9282,2.80722 11.6833,14.15594 10.5747,14.88861 -5.1725,3.41847 -2.0667,4.65526 -12.9053,8.98889 -2.3149,0.92557 -3.4566,4.86129 -5.7952,7.01955 -1.5401,1.42129 -5.1891,6.91396 13.7098,-3.53383 1.7785,-0.98317 -11.9401,12.9989 -13.7494,14.39333 -13.6942,10.55424 -3.9417,10.47683 -7.2113,13.49886 -13.9252,12.8709 -13.5801,1.92825 -14.0255,4.87067 -0.4347,2.87256 3.8978,7.53998 6.8239,7.42711 1.6047,-0.0619 12.412,-12.2123 29.5014,-29.12391 23.5341,-23.28917 50.4079,-49.01236 51.3942,-49.90333 10.678,-9.64507 27.2328,10.73 19.3017,14.40849 -15.585,7.2285 -24.084,16.7864 -26.1764,22.85044 -3.0657,8.88485 -8.9469,10.7795 -10.3432,13.37213 -3.3983,6.30959 -15.2507,18.81841 -25.5132,23.19994 -4.694,2.00407 -8.483,-9.09088 -12.3158,-6.30659 -6.611,4.80238 -6.5792,6.84447 -6.9061,8.59255 1.7522,-1.98644 3.2795,-2.37426 6.5475,-3.01255 5.5444,-1.08292 11.9133,10.32179 7.8767,12.57298 -5.2555,2.93094 -9.4369,5.46319 -9.1268,11.72041 0.3087,6.22924 -6.9212,10.8665 -9.8159,13.31911 -6.1395,5.20174 -9.4623,6.59792 -14.8334,1.02881 -1.9192,5.96405 7.1218,10.56771 9.9719,10.08291 2.3961,-0.40769 4.9637,-5.22742 4.9637,-5.22742 l 66.9133,-70.46788 c 0,0 7.9226,-1.57324 11.7147,-2.92074 8.8932,-3.16014 13.932,-10.90519 23.8737,-14.84598 7.7527,-3.07309 19.6203,-4.42781 28.4681,-5.66262 40.6055,-5.66696 123.0509,-37.08321 131.3137,-44.69821 51.822,-47.75888 81.0961,-69.43309 98.388,-78.79205 0,0 10.0975,-1.33555 32.7728,-15.70359 2.6508,-1.67967 18.8981,1.40133 30.2131,-2.76016 -8.6868,-3.86454 -27.6423,-4.85388 -42.6048,-6.96121 19.173,-5.3266 32.6906,-1.37063 46.4773,3.7726 -8.6753,-4.55939 -16.7722,-15.38335 -52.9044,-17.99237 -17.2077,-17.58281 -70.3959,-11.22675 -88.7779,2.43143 2.1222,-11.94967 -0.2731,-22.78822 -4.9952,-32.5417 -5.2578,-10.85998 -5.6319,-21.61657 -9.1898,-33.1333 -6.2915,-20.36565 -8.4864,-38.04136 -12.4335,-59.31343 -4.0587,-21.87325 -1.8785,-65.65833 17.7791,-89.39356 0.5953,-0.71879 -4.6634,-1.48095 -7.4694,0.5561 -5.1628,3.74789 -8.5581,16.52281 -9.2414,18.27253 -2.9708,7.60646 -6.2196,33.70237 -6.4124,33.19747 -9.5701,-25.06297 -19.7117,-69.18227 -12.9483,-115.38784 0.7888,-5.38923 -3.0153,-0.22303 -4.2641,4.96895 -1.654,6.87706 1.4592,14.902 -1.339,19.62564 -2.2886,3.86336 -6.8223,10.05716 -6.8236,11.51285 -0.01,9.44634 4.1082,22.71237 5.9257,29.42621 0.2256,0.83312 -3.3629,0.0446 -3.8057,0.47702 -0.6124,0.598 -5.7608,-5.27082 -4.4981,-14.54471 2.515,-18.47021 -4.2773,-12.90701 -12.0084,-34.50348 -4.1559,-11.60928 -6.2677,-20.43468 -11.5491,-36.23392 -1.8023,-5.39164 -23.6786,-16.00684 -24.779,-20.55035 -14.3012,-59.04894 -1.725,-84.79663 7.5972,-99.90373 2.5843,-4.18804 -10.5698,1.87318 -14.3624,8.30859 -8.148,13.82617 -11.9051,86.54934 0.7074,123.26517 1.0386,3.02335 -9.0591,-0.94061 -10.6817,-3.26934 -13.9315,-19.99465 -27.2458,-66.74379 -37.0408,-97.75563 -10.2618,42.0259 38.3355,130.19653 64.4806,161.45485 -6.7782,-0.9731 -53.0145,-58.11189 -60.796,-66.75393 -35.9249,-39.89808 -31.6607,-55.10994 -38.5142,-76.91048 -1.0937,14.83348 -2.523,69.05973 83.0039,154.67271 -28.271,-17.56883 -57.9484,-40.76315 -92.5016,-83.4608 11.7066,30.61401 23.5174,61.2558 81.5575,104.22541 -28.4357,-19.88719 -63.2945,-32.96953 -85.0414,-60.85763 3.6068,20.00118 5.6492,40.09344 76.2004,76.16315 0,0 -72.012,-29.25176 -83.7623,-43.16407 10.8796,23.39541 32.2146,39.48733 57.1617,55.1143 6.5975,4.1327 -52.5143,-17.90383 -63.0394,-33.12762 -2.7739,8.48214 12.164,24.05263 25.3216,35.40978 9.4668,8.17127 -21.5033,-5.51368 -33.5159,-9.06074 23.6455,31.95811 59.78,33.96761 75.7275,44.29967 -21.4476,0.88834 -41.6351,-9.38002 -69.5369,-13.18294 -19.773,-2.695 -12.2577,28.89566 -15.4438,34.25105 -5.3209,8.94379 -1.6052,44.14589 -0.2964,49.09809 1.0397,3.93436 11.3071,1.16714 12.1093,11.66909 0.7461,9.76833 -9.6085,11.56357 -8.8636,16.62729 0.7556,5.13695 1.3629,9.01443 1.7241,13.17078 0.3162,3.64022 9.6364,5.65649 9.5759,10.76751 -0.06,5.078 -7.0239,2.66338 -6.0077,7.68354 0.7769,3.83827 3.6554,6.57168 4.4474,10.26582 0.7242,3.37741 -0.5962,5.85976 0.2518,9.10572 1.6615,6.36043 7.1017,4.78615 8.7718,10.71011 1.0347,3.66996 -0.5774,8.41524 -1.7191,12.9625 -0.9319,3.71206 -1.5503,7.29216 -0.1594,10.04761 2.6625,5.27449 17.1277,11.20324 17.1277,11.20324 -25.5102,4.01598 -49.1173,12.30244 -81.7771,13.47891 -18.1713,0.65456 -38.4394,-1.85554 -56.2395,0.59917 -16.9292,2.33461 -34.9732,-0.28482 -50.5329,7.45601 z"
  </g>
</svg>
