<!--?xml version="1.0" encoding="utf-8"?-->
<!-- Generator: Adobe Illustrator 18.1.1, SVG Export Plug-In . SVG Version: 6.00 Build 0)  -->

<svg version="1.1" id="_x32_" xmlns="http://www.w3.org/2000/svg" xmlns:xlink="http://www.w3.org/1999/xlink" x="0px" y="0px" viewBox="0 0 512 512" style="width: 256px; height: 256px; opacity: 1;" xml:space="preserve">
<style type="text/css">
	.st0{fill:#4B4B4B;}
</style>
<g>
	<path class="st0" d="M256,0C119.544,0,8.92,36.244,8.92,80.94v0.039v52.74c0,21.78,10.078,42.344,27.278,55.708l175.093,135.97V512
		h89.419V325.398l175.105-135.97c17.201-13.364,27.265-33.928,27.265-55.708V80.94C503.08,36.244,392.458,0,256,0z M256,148.798
		c-113.078,0-204.723-25.987-204.723-58.036c0-32.036,91.645-58.022,204.723-58.022c113.066,0,204.723,25.986,204.723,58.022
		C460.723,122.81,369.066,148.798,256,148.798z" style="fill: rgb(75, 75, 75);"></path>
</g>
</svg>
