<?xml version="1.0" encoding="iso-8859-1"?>
<!-- Uploaded to: SVG Repo, www.svgrepo.com, Generator: SVG Repo Mixer Tools -->
<!DOCTYPE svg PUBLIC "-//W3C//DTD SVG 1.1//EN" "http://www.w3.org/Graphics/SVG/1.1/DTD/svg11.dtd">
<svg fill="#000000" version="1.1" id="Capa_1" xmlns="http://www.w3.org/2000/svg" xmlns:xlink="http://www.w3.org/1999/xlink" 
	 width="800px" height="800px" viewBox="0 0 568.766 568.766"
	 xml:space="preserve">
<g>
	<path d="M515.192,195.54c-9.113-6.034-19.708-11.619-31.403-16.754l-37.839-13.655c-39.062-11.513-86.015-18.561-136.715-19.22
		c-0.401,0-0.822,0-1.205-0.019c-0.43,0-0.803,0-1.233-0.01c-86.445-0.344-207.277,16.887-251.599,45.059
		c-32.551,17.729-54.831,52.106-55.195,91.8c-0.134,17.576,4.064,34.205,11.552,48.846c2.85,7.344,9.955,12.564,18.36,12.642
		l149.998,1.3c7.812,0.067,14.63-4.456,17.93-10.987l0.038-0.019c8.176-14.793,12.9-31.805,13.053-49.964
		c0.105-12.192-1.884-23.945-5.613-34.894c18.322-1.654,82.208-1.473,101.831-1.415c19.584,0.277,38.633,1.434,56.916,3.414
		c-3.901,10.873-6.062,22.577-6.158,34.779c-0.162,18.159,4.274,35.257,12.154,50.193l0.096,0.01
		c3.184,6.588,9.811,11.226,17.69,11.293l149.997,1.291c8.396,0.066,15.577-5.049,18.542-12.316
		c7.765-14.516,12.24-31.06,12.374-48.654C569.105,248.564,547.438,213.814,515.192,195.54z"/>
	<path d="M283.866,272.527c-7.249-0.009-13.148,5.881-13.139,13.14l-0.105,86.205l-12.307-15.29
		c-6.196-7.707-15.96-10.107-21.831-5.394c-5.862,4.715-5.594,14.784,0.593,22.481l32.407,40.268
		c1.176,1.454,2.458,2.688,3.806,3.749c2.429,3.127,6.148,5.202,10.404,5.202c3.231,0,6.167-1.215,8.472-3.156
		c2.524-1.3,4.925-3.231,6.962-5.766l32.493-40.201c6.206-7.669,6.503-17.729,0.65-22.491c-5.862-4.714-15.654-2.323-21.86,5.346
		l-13.53,16.754l0.096-87.698C296.985,278.437,291.124,272.547,283.866,272.527z"/>
</g>
</svg>