<!--?xml version="1.0" encoding="utf-8"?-->
<!-- Generator: Adobe Illustrator 18.1.1, SVG Export Plug-In . SVG Version: 6.00 Build 0)  -->

<svg version="1.1" id="_x32_" xmlns="http://www.w3.org/2000/svg" xmlns:xlink="http://www.w3.org/1999/xlink" x="0px" y="0px" viewBox="0 0 512 512" style="width: 256px; height: 256px; opacity: 1;" xml:space="preserve">
<style type="text/css">
	.st0{fill:#4B4B4B;}
</style>
<g>
	<path class="st0" d="M379.937,200.743v49.573c-0.012,34.204-13.87,65.085-36.346,87.596
		c-22.513,22.478-53.384,36.335-87.586,36.335c-34.204,0-65.086-13.857-87.598-36.335c-22.476-22.511-36.333-53.393-36.345-87.596
		v-49.573H95.49v49.573c0.035,82.37,62.275,150.266,142.23,159.384v69.787h-46.739V512h130.026v-32.513h-46.715V409.7
		c79.942-9.119,142.182-77.014,142.218-159.384v-49.573H379.937z" style="fill: rgb(75, 75, 75);"></path>
	<path class="st0" d="M256.006,334.032c46.155,0,83.704-37.561,83.704-83.716V83.716C339.71,37.561,302.161,0,256.006,0
		c-46.156,0-83.717,37.561-83.717,83.716v166.599C172.289,296.471,209.85,334.032,256.006,334.032z" style="fill: rgb(75, 75, 75);"></path>
</g>
</svg>
