<svg xmlns:dc="http://purl.org/dc/elements/1.1/" xmlns:cc="http://creativecommons.org/ns#" xmlns:rdf="http://www.w3.org/1999/02/22-rdf-syntax-ns#" xmlns:svg="http://www.w3.org/2000/svg" xmlns="http://www.w3.org/2000/svg" xmlns:sodipodi="http://sodipodi.sourceforge.net/DTD/sodipodi-0.dtd" xmlns:inkscape="http://www.inkscape.org/namespaces/inkscape" viewBox="0 0 12.7 15.875" version="1.1" x="0px" y="0px"><g transform="translate(0,-284.29998)"><path style="" d="m 9.4121411,286.00757 a 1.5820782,1.5820782 0 0 0 -1.541002,1.50857 1.1603402,1.1603402 0 0 1 0.4947225,1.86726 6.5132377,6.5132377 0 0 1 -5.401982,2.17437 l -1.8284657,1.49105 a 0.19545251,0.19545251 0 0 0 -0.048346,0.059 4.6716829,4.6716829 0 0 0 -0.40597507,1.02927 L 3.0722974,292.1864 a 0.08176859,0.08176859 0 0 1 0.1036023,0.12646 l -2.55433454,2.08407 a 4.6716829,4.6716829 0 0 0 -0.0924476,0.89697 l 3.58412684,-2.92363 a 0.35869142,0.35869142 0 0 1 0.4378611,-0.0117 3.0004255,3.0004255 0 0 0 0.6812229,0.37357 0.19545251,0.19545251 0 0 0 0.064833,0.0133 4.6777413,4.6777413 0 0 0 4.4199914,-2.75838 1.1553293,1.1553293 0 0 0 0.060562,-0.7216 0.35869142,0.35869142 0 0 1 0.038797,-0.26515 5.1831133,5.1831133 0 0 1 1.3560802,-1.52134 l 0.98199,-0.40809 a 0.02720649,0.02720649 0 0 0 -0.01007,-0.0521 l -1.08932,-0.10735 a 0.35869142,0.35869142 0 0 1 -0.268365,-0.1658 h 0.0038 a 1.5820782,1.5820782 0 0 0 -1.3783893,-0.73912 z m 0.1918329,0.8502 a 0.23398427,0.23398427 0 0 1 0.2406957,0.23379 0.23407095,0.23407095 0 1 1 -0.4681419,0 0.23398427,0.23398427 0 0 1 0.2274462,-0.23379 z" fill="#000000" stroke="none"/><path style="" d="m 8.2393681,289.27508 a 0.9971013,0.9971013 0 0 0 -1.0207698,-1.6195 8.2142035,8.2142035 0 0 0 -4.7610221,3.6358 0.02920937,0.02920937 0 0 0 0.020566,0.044 6.3499989,6.3499989 0 0 0 1.2230318,0.0766 3.2411192,3.2411192 0 0 0 1.184163,-1.29607 0.08175203,0.08175203 0 0 1 0.1461181,0.0733 3.404358,3.404358 0 0 1 -1.0128522,1.20391 6.3499989,6.3499989 0 0 0 1.8334167,-0.43511 5.2483181,5.2483181 0 0 0 0.8465798,-1.65407 0.08162994,0.08162994 0 0 1 0.1561952,0.0475 5.411557,5.411557 0 0 1 -0.7105389,1.48063 6.3499989,6.3499989 0 0 0 2.0948045,-1.55704 z" fill="#000000" stroke="none"/><path style="" d="m 7.3740736,294.00899 a 0.19545251,0.19545251 0 0 0 0.1691515,0.0975 h 0.5045752 a 0.08162,0.08162 0 0 1 0,0.16324 H 7.5432251 a 0.35869141,0.35869141 0 0 1 -0.310231,-0.179 l -0.7479682,-1.29103 0.1663752,-0.0395 z" fill="#000000" stroke="none"/></g><text x="0" y="27.7" fill="#000000" font-size="5px" font-weight="bold" font-family="'Helvetica Neue', Helvetica, Arial-Unicode, Arial, Sans-serif">Created by Phạm Thanh Lộc</text><text x="0" y="32.7" fill="#000000" font-size="5px" font-weight="bold" font-family="'Helvetica Neue', Helvetica, Arial-Unicode, Arial, Sans-serif">from the Noun Project</text></svg>