<svg color="black" cursor="pointer" height="32" width="32" fill="currentColor" viewBox="1.9 1.9 14 14">
  <path d="M7.78361 2.70909C8.30172 2.19097 9.00444 1.8999 9.73716 1.8999C11.263 1.8999 12.4999 3.13682 12.4999 4.66264C12.4999 5.39537 12.2088 6.09808 11.6907 6.6162L7.08483 11.2221C6.77888 11.528 6.36394 11.6999 5.93127 11.6999C5.03029 11.6999 4.2999 10.9695 4.2999 10.0685C4.2999 9.63587 4.47178 9.22092 4.77772 8.91498L9.24635 4.44635L9.95345 5.15346L5.48483 9.62209C5.36642 9.74049 5.2999 9.90108 5.2999 10.0685C5.2999 10.4172 5.58258 10.6999 5.93127 10.6999C6.09872 10.6999 6.25931 10.6334 6.37772 10.515L10.9836 5.90909C11.3142 5.57851 11.4999 5.13015 11.4999 4.66264C11.4999 3.68911 10.7107 2.8999 9.73716 2.8999C9.26965 2.8999 8.82129 3.08562 8.49071 3.4162L3.74757 8.15934C3.20482 8.7021 2.8999 9.43822 2.8999 10.2058C2.8999 11.8042 4.19564 13.0999 5.79401 13.0999C6.56158 13.0999 7.29771 12.795 7.84046 12.2522L12.4463 7.64635L13.1535 8.35346L8.54757 12.9593C7.81728 13.6896 6.8268 14.0999 5.79401 14.0999C3.64336 14.0999 1.8999 12.3564 1.8999 10.2058C1.8999 9.17301 2.31017 8.18252 3.04046 7.45224L7.78361 2.70909Z" />
</svg>