<!--?xml version="1.0" encoding="utf-8"?-->
<!-- Generator: Adobe Illustrator 18.1.1, SVG Export Plug-In . SVG Version: 6.00 Build 0)  -->

<svg version="1.1" id="_x32_" xmlns="http://www.w3.org/2000/svg" xmlns:xlink="http://www.w3.org/1999/xlink" x="0px" y="0px" viewBox="0 0 512 512" style="width: 256px; height: 256px; opacity: 1;" xml:space="preserve">
<g>
	<path class="st0" d="M131.474,442.606H512l-45.828-70.447h-51.578l-29.121-211.834l-40.481,5.548
		c-5.555-4.704-16.389-13.154-35.466-25.048c-17.858-11.208-38.472-17.02-55.07-17.02c-48.364,0-102.796,0-102.796,0l-14.907-8.88
		l-61.359,91.172l28.165,17.172l36.852,52.382c4.115,5.861,9.67,10.62,16.112,13.736c0,0,24.951,11.79,44.873,21.723
		c7.19,3.596,15.642,6.768,24.729,9.622l7.08,51.426h-55.971L131.474,442.606z M275.97,334.309
		c27.694,7.405,50.997-20.767,28.221-39.74c-29.606-24.681-30.548-24.792-30.548-24.792c-9.836-7.98-15.544-19.922-15.641-32.606
		c-0.055-12.628,5.487-24.632,15.212-32.771l10.529-8.714l83.65-11.527l25.852,187.998l3.851,28.165H258.417l-3.851-28.165
		l-6.193-45.032C257.725,329.613,267.188,331.934,275.97,334.309z" style="fill: var(--text-color);"></path>
	<polygon class="st0" points="75.878,69.394 0,183.038 54.252,218.005 130.892,104.375 	" style="fill: var(--text-color)"></polygon>
</g>
</svg>
