<svg xmlns="http://www.w3.org/2000/svg"
  xmlns:xlink="http://www.w3.org/1999/xlink" version="1.1" x="0px" y="0px" viewBox="0 0 100 125" enable-background="new 0 0 100 100" xml:space="preserve">
  <g>
    <g>
      <path d="M36.729,50.67H12.196c-0.37,0-0.67-0.3-0.67-0.67c0-0.37,0.3-0.67,0.67-0.67h24.533c0.37,0,0.67,0.3,0.67,0.67    C37.399,50.37,37.1,50.67,36.729,50.67z"/>
    </g>
    <g>
      <path d="M87.059,50.67H62.524c-0.369,0-0.67-0.3-0.67-0.67c0-0.37,0.301-0.67,0.67-0.67h24.534c0.37,0,0.67,0.3,0.67,0.67    C87.729,50.37,87.429,50.67,87.059,50.67z"/>
    </g>
    <g>
      <path d="M44.467,58.407c-4.635,0-8.407-3.771-8.407-8.407s3.772-8.407,8.407-8.407c0.37,0,0.67,0.3,0.67,0.67s-0.3,0.67-0.67,0.67    c-3.896,0-7.067,3.17-7.067,7.067c0,3.896,3.171,7.067,7.067,7.067c0.37,0,0.67,0.3,0.67,0.67S44.837,58.407,44.467,58.407z"/>
    </g>
    <g>
      <path d="M54.787,58.407c-0.37,0-0.671-0.3-0.671-0.67s0.301-0.67,0.671-0.67c3.896,0,7.067-3.171,7.067-7.067    c0-3.897-3.171-7.067-7.067-7.067c-0.37,0-0.671-0.3-0.671-0.67s0.301-0.67,0.671-0.67c4.636,0,8.407,3.771,8.407,8.407    S59.423,58.407,54.787,58.407z"/>
    </g>
    <g>
      <path d="M91.015,54.143c-2.284,0-4.142-1.858-4.142-4.143c0-2.285,1.857-4.143,4.142-4.143s4.143,1.858,4.143,4.143    C95.157,52.284,93.299,54.143,91.015,54.143z M91.015,46.976c-1.667,0-3.023,1.356-3.023,3.024c0,1.667,1.356,3.024,3.023,3.024    c1.668,0,3.024-1.356,3.024-3.024C94.039,48.332,92.683,46.976,91.015,46.976z"/>
    </g>
    <g>
      <circle cx="8.613" cy="50" r="3.583"/>
      <path d="M8.612,53.77c-2.078,0-3.77-1.691-3.77-3.77s1.691-3.771,3.77-3.771c2.079,0,3.771,1.692,3.771,3.771    S10.691,53.77,8.612,53.77z M8.612,46.603c-1.872,0-3.396,1.524-3.396,3.397c0,1.873,1.524,3.397,3.396,3.397    c1.874,0,3.397-1.524,3.397-3.397C12.01,48.126,10.486,46.603,8.612,46.603z"/>
    </g>
    <g>
      <circle cx="49.343" cy="50.313" r="1.761"/>
    </g>
    <g>
      <circle cx="54.537" cy="50.313" r="1.76"/>
    </g>
    <g>
      <circle cx="44.049" cy="50.313" r="1.761"/>
    </g>
  </g>
</svg>