<svg xmlns="http://www.w3.org/2000/svg"
  xmlns:xlink="http://www.w3.org/1999/xlink" version="1.1" x="0px" y="0px" viewBox="0 0 100 125" enable-background="new 0 0 100 100" xml:space="preserve">
  <g>
    <path d="M36.765,50.668H12.297c-0.369,0-0.668-0.299-0.668-0.668s0.299-0.668,0.668-0.668h24.468c0.369,0,0.668,0.299,0.668,0.668   S37.134,50.668,36.765,50.668z"/>
  </g>
  <g>
    <path d="M86.96,50.668H62.491c-0.369,0-0.668-0.299-0.668-0.668s0.299-0.668,0.668-0.668H86.96c0.368,0,0.668,0.299,0.668,0.668   S87.328,50.668,86.96,50.668z"/>
  </g>
  <g>
    <path d="M44.481,58.385c-4.624,0-8.385-3.761-8.385-8.385s3.761-8.385,8.385-8.385c0.369,0,0.668,0.299,0.668,0.668   s-0.299,0.668-0.668,0.668c-3.887,0-7.049,3.162-7.049,7.049s3.162,7.049,7.049,7.049c0.369,0,0.668,0.299,0.668,0.668   S44.851,58.385,44.481,58.385z"/>
  </g>
  <g>
    <path d="M54.773,58.385c-0.369,0-0.668-0.299-0.668-0.668s0.299-0.668,0.668-0.668c3.887,0,7.05-3.162,7.05-7.049   s-3.163-7.049-7.05-7.049c-0.369,0-0.668-0.299-0.668-0.668s0.299-0.668,0.668-0.668c4.624,0,8.386,3.761,8.386,8.385   S59.397,58.385,54.773,58.385z"/>
  </g>
  <g>
    <path d="M90.905,54.131c-2.278,0-4.132-1.853-4.132-4.13c0-2.279,1.854-4.133,4.132-4.133s4.132,1.854,4.132,4.133   C95.037,52.278,93.184,54.131,90.905,54.131z M90.905,46.983c-1.663,0-3.017,1.354-3.017,3.018c0,1.662,1.354,3.015,3.017,3.015   s3.017-1.353,3.017-3.015C93.922,48.337,92.568,46.983,90.905,46.983z"/>
  </g>
  <g>
    <circle cx="8.723" cy="50.001" r="3.574"/>
    <path d="M8.723,53.759c-2.073,0-3.76-1.686-3.76-3.758c0-2.074,1.687-3.761,3.76-3.761s3.76,1.687,3.76,3.761   C12.482,52.073,10.796,53.759,8.723,53.759z M8.723,46.612c-1.868,0-3.388,1.52-3.388,3.389c0,1.867,1.52,3.387,3.388,3.387   s3.389-1.52,3.389-3.387C12.111,48.132,10.591,46.612,8.723,46.612z"/>
  </g>
  <polygon points="53.289,47.706 51.757,46.174 49.463,48.467 47.169,46.174 45.637,47.706 47.931,50 45.637,52.294 47.169,53.826   49.463,51.532 51.757,53.826 53.289,52.294 50.995,50 "/>
</svg>