<svg xmlns="http://www.w3.org/2000/svg"
  xmlns:xlink="http://www.w3.org/1999/xlink" version="1.1" x="0px" y="0px" viewBox="0 0 100 125" enable-background="new 0 0 100 100" xml:space="preserve">
  <g>
    <polygon points="48.056,54.66 43.723,50.665 45.194,49.069 47.982,51.639 53.438,46.09 54.986,47.611  "/>
  </g>
  <g>
    <path d="M36.744,50.669H12.239c-0.37,0-0.669-0.299-0.669-0.669s0.3-0.669,0.669-0.669h24.505c0.37,0,0.669,0.3,0.669,0.669   S37.114,50.669,36.744,50.669z"/>
  </g>
  <g>
    <path d="M87.017,50.669H62.51c-0.37,0-0.669-0.299-0.669-0.669s0.299-0.669,0.669-0.669h24.507c0.369,0,0.669,0.3,0.669,0.669   S87.386,50.669,87.017,50.669z"/>
  </g>
  <g>
    <path d="M44.473,58.398c-4.631,0-8.398-3.767-8.398-8.398s3.767-8.398,8.398-8.398c0.37,0,0.669,0.3,0.669,0.669   c0,0.37-0.299,0.669-0.669,0.669c-3.893,0-7.06,3.167-7.06,7.06s3.167,7.06,7.06,7.06c0.37,0,0.669,0.299,0.669,0.669   S44.843,58.398,44.473,58.398z"/>
  </g>
  <g>
    <path d="M54.781,58.398c-0.37,0-0.669-0.299-0.669-0.669s0.299-0.669,0.669-0.669c3.893,0,7.061-3.167,7.061-7.06   s-3.167-7.06-7.061-7.06c-0.37,0-0.669-0.3-0.669-0.669c0-0.369,0.299-0.669,0.669-0.669c4.631,0,8.399,3.767,8.399,8.398   S59.412,58.398,54.781,58.398z"/>
  </g>
  <g>
    <path d="M90.969,54.137c-2.282,0-4.138-1.855-4.138-4.137c0-2.282,1.856-4.139,4.138-4.139s4.138,1.856,4.138,4.139   C95.106,52.282,93.25,54.137,90.969,54.137z M90.969,46.979c-1.666,0-3.021,1.355-3.021,3.021c0,1.665,1.355,3.02,3.021,3.02   c1.666,0,3.021-1.354,3.021-3.02C93.99,48.334,92.634,46.979,90.969,46.979z"/>
  </g>
  <g>
    <circle cx="8.659" cy="50" r="3.58"/>
    <path d="M8.659,53.765c-2.076,0-3.766-1.688-3.766-3.764c0-2.077,1.689-3.766,3.766-3.766s3.766,1.689,3.766,3.766   C12.425,52.076,10.735,53.765,8.659,53.765z M8.659,46.606c-1.871,0-3.393,1.522-3.393,3.394c0,1.871,1.522,3.392,3.393,3.392   s3.393-1.521,3.393-3.392C12.052,48.129,10.53,46.606,8.659,46.606z"/>
  </g>
</svg>