<svg xmlns="http://www.w3.org/2000/svg"
  xmlns:xlink="http://www.w3.org/1999/xlink" version="1.1" x="0px" y="0px" viewBox="0 0 100 125" enable-background="new 0 0 100 100" xml:space="preserve">
  <g>
    <g>
      <path d="M36.789,50.667H12.367c-0.367,0-0.666-0.298-0.666-0.667c0-0.368,0.299-0.667,0.666-0.667h24.422    c0.369,0,0.668,0.299,0.668,0.667C37.457,50.368,37.158,50.667,36.789,50.667z"/>
    </g>
    <g>
      <path d="M86.891,50.667H62.469c-0.369,0-0.668-0.298-0.668-0.667c0-0.368,0.299-0.667,0.668-0.667h24.422    c0.369,0,0.666,0.299,0.666,0.667C87.557,50.368,87.26,50.667,86.891,50.667z"/>
    </g>
    <g>
      <path d="M44.492,58.37c-4.615,0-8.369-3.755-8.369-8.37c0-4.615,3.754-8.369,8.369-8.369c0.369,0,0.666,0.298,0.666,0.667    c0,0.368-0.297,0.667-0.666,0.667c-3.879,0-7.035,3.156-7.035,7.035c0,3.88,3.156,7.036,7.035,7.036    c0.369,0,0.666,0.298,0.666,0.667C45.158,58.071,44.861,58.37,44.492,58.37z"/>
    </g>
    <g>
      <path d="M54.766,58.37c-0.369,0-0.668-0.299-0.668-0.667c0-0.369,0.299-0.667,0.668-0.667c3.879,0,7.035-3.156,7.035-7.036    c0-3.879-3.156-7.035-7.035-7.035c-0.369,0-0.668-0.299-0.668-0.667c0-0.369,0.299-0.667,0.668-0.667    c4.615,0,8.369,3.754,8.369,8.369C63.135,54.615,59.381,58.37,54.766,58.37z"/>
    </g>
    <g>
      <path d="M90.828,54.123c-2.273,0-4.123-1.85-4.123-4.123c0-2.274,1.85-4.125,4.123-4.125c2.275,0,4.125,1.851,4.125,4.125    C94.953,52.273,93.104,54.123,90.828,54.123z M90.828,46.989c-1.66,0-3.01,1.351-3.01,3.012c0,1.659,1.35,3.009,3.01,3.009    S93.84,51.66,93.84,50C93.84,48.34,92.488,46.989,90.828,46.989z"/>
    </g>
    <g>
      <path d="M12.367,50c0,1.969-1.598,3.566-3.566,3.566c-1.971,0-3.568-1.597-3.568-3.566c0-1.972,1.598-3.568,3.568-3.568    C10.77,46.432,12.367,48.028,12.367,50z"/>
      <path d="M8.801,53.752c-2.07,0-3.754-1.683-3.754-3.751c0-2.07,1.684-3.754,3.754-3.754c2.068,0,3.752,1.684,3.752,3.754    C12.553,52.069,10.869,53.752,8.801,53.752z M8.801,46.618c-1.865,0-3.383,1.518-3.383,3.383c0,1.864,1.518,3.38,3.383,3.38    c1.863,0,3.381-1.517,3.381-3.38C12.182,48.135,10.664,46.618,8.801,46.618z"/>
    </g>
    <g>
      <path d="M48.473,52.497h2.18v2.14h-2.18V52.497z M50.584,47.384l-0.543,4.279h-0.986l-0.527-4.279v-2.668h2.057V47.384z"/>
    </g>
  </g>
</svg>