<!--?xml version="1.0" encoding="utf-8"?-->
<!-- Generator: Adobe Illustrator 18.1.1, SVG Export Plug-In . SVG Version: 6.00 Build 0)  -->

<svg version="1.1" id="_x32_" xmlns="http://www.w3.org/2000/svg" xmlns:xlink="http://www.w3.org/1999/xlink" x="0px" y="0px" viewBox="0 0 512 512" style="width: 256px; height: 256px; opacity: 1;" xml:space="preserve">
<style type="text/css">
	.st0{fill:#4B4B4B;}
</style>
<g>
	<path class="st0" d="M92.867,258.675c0.005-0.01,0.019-0.019,0.022-0.028l0.092-0.156L92.867,258.675z" style="fill: rgb(75, 75, 75);"></path>
	<path class="st0" d="M116.173,242.193l-0.056,0.009c0.01,0,0.019,0,0.019,0C116.15,242.193,116.159,242.193,116.173,242.193z" style="fill: rgb(75, 75, 75);"></path>
	<path class="st0" d="M508.638,267.543l-50.478-4.196l-88.658-112.261c-6.967-11.268-18.716-22.408-34.089-32.274
		c-1.452-0.917-2.922-1.823-4.411-2.693l10.581-14.64c3.499-4.846,6.138-8.602,7.81-11.002c25.046-36.59,9.184-58.751-8.534-70.89
		c-9.39-6.413-18.68-9.664-27.606-9.664c-15.153,0-29.138,9.206-41.57,27.364c-3.174,4.672-17.708,27.749-30.534,48.114
		l-8.107,12.862l-61.994,0.018c-14.127,0.577-25.926,3.014-36.077,7.439c-10.425,4.525-19.614,11.543-27.012,20.539L54.496,177.03
		c-9.908,9.152-16.949,20.302-20.924,33.145c-3.097,9.986-4.04,19.586-4.796,27.291l-0.202,2.024l-13.66,100.298
		c-1.461,6.302-2.207,12.275-2.207,17.754c-0.046,16.93,6.893,27.447,11.026,32.211c3.307,3.839,6.628,6.322,8.914,7.77
		c-5.025,4.433-8.04,10.654-8.401,17.442l-10.38,48.72l-2.968,4.342c-3.202,1.319-5.881,3.481-7.796,6.303
		c-2.03,2.968-3.106,6.431-3.102,9.985c-0.005,5.863,2.876,11.342,7.727,14.667l1.26,0.852c0.357,0.256,0.737,0.421,1.136,0.531
		c2.368,1.128,4.956,1.714,7.613,1.714c5.858,0,11.332-2.887,14.658-7.724c1.947-2.858,3.014-6.165,3.088-9.6l2.469-3.61
		c0,0,50.676-21.015,50.725-21.034c7.123-2.867,12.588-8.996,14.736-16.508c0.674-1.32,3.128-6.12,6.001-12.056
		c2.643-5.451,4.874-10.27,6.66-14.402c0.43,0.165,0.893,0.257,1.361,0.257c0.224,0,0.453-0.019,0.678-0.055
		c0.958-0.183,1.8-0.733,2.35-1.539l4.787-6.999c0.71-1.045,0.838-2.373,0.334-3.536c-0.018-0.037-1.781-4.37,0.985-8.41l0.28-0.402
		c3.916,1.923,8.102,3.197,12.51,3.82c1.699,2.968,3.788,5.763,6.216,8.309c5.029,5.314,16.453,14.228,36.727,14.228
		c9.147,0,19.526-1.887,30.882-5.597c7.077,5.368,14.57,9.82,22.844,13.604c19.133,8.749,40.506,13.091,60.756,16.48
		c14.947,2.482,33.622,3.738,55.517,3.738c33.323,0,63.61-2.876,70.298-3.554l85.364,8.704c0.128,0.018,0.257,0.018,0.376,0.018
		c0.907,0,1.776-0.33,2.455-0.944c0.769-0.696,1.209-1.676,1.209-2.72V271.198C512,269.283,510.543,267.708,508.638,267.543z
		 M28.587,357.542c0-4.195,0.542-9.051,1.888-14.676l0.073-0.294L44.344,241.36l0.014-0.092c0.824-8.354,1.584-17.415,4.384-26.375
		c2.808-8.969,7.508-17.837,16.587-26.247l0.082-0.073l53.909-51.211l0.234-0.292c6.381-7.787,13.366-13.128,21.762-16.802
		c8.374-3.646,18.272-5.607,30.301-6.12h55.724c-15.424,24.442-34.112,54.252-52.608,83.806l-41.02,31.432l-2.844,5.844
		c-0.848-0.375-1.732-0.778-2.671-1.227c-4.659-2.18-10.274-4.92-14.712-7.1c-4.444-2.181-7.696-3.812-7.704-3.812l-5.466,10.92
		c0.014,0,5.86,2.932,12.574,6.202c1.273,0.614,2.588,1.255,3.893,1.878c-0.215,0.055-0.431,0.055-0.641,0.11
		c-9.816,1.997-18.144,8.062-23.252,16.444L86.614,269.1H86.61c-3.394,5.671-5.066,12.001-5.061,18.286
		c-0.004,8.96,3.39,17.855,9.917,24.69l0.129,0.118l1.685,1.741l-7.594,25.312c-3.844,5.616-10.957,16.005-13.806,20.182
		c-4.004,5.845-10.663,5.561-10.663,5.561l-4.792,7.008l4.7,3.206c-3.491,3.206-7.558,7.11-11.383,10.828
		c-1.058,0.266-1.988,0.44-2.694,0.44c-1.195-0.027-2.153-0.202-3.971-1.31l-0.413-0.266l-0.348-0.146l-0.572-0.312
		c-1.333-0.751-4.649-2.931-7.563-7.099C31.272,373.153,28.61,367.033,28.587,357.542z M156.216,227.527
		c-4.319,6.907-8.556,13.686-12.67,20.246l-0.215-0.111l-0.009,0.019c-1.224-0.825-2.506-1.576-3.834-2.254l3.948-8.098
		L156.216,227.527z M38.884,396.771c-0.073,0.073-0.105,0.11-0.178,0.183c-0.01-0.128-0.087-0.219-0.106-0.338
		C38.697,396.661,38.789,396.725,38.884,396.771z M97.869,425.949c-1.649,3.408-3.17,6.459-4.279,8.658
		c-1.108,2.199-1.791,3.518-1.791,3.518l-0.283,0.55l-0.128,0.614c-0.876,4.132-3.779,7.522-7.724,9.024l-0.064,0.027
		l-54.088,22.418l-7.338,10.736l0.385,1.906l0.096,0.962c0,0.952-0.266,1.878-0.856,2.757c-0.952,1.384-2.482,2.126-4.063,2.126
		c-0.971,0-1.915-0.266-2.767-0.852c-1.397-0.962-2.13-2.483-2.139-4.068c0-0.944,0.27-1.878,0.842-2.73l0.019-0.028
		c0.796-1.154,1.923-1.832,3.202-2.061l1.914-0.329l7.077-10.344l11.075-51.971l-0.005-0.495v-0.082
		c0-4.196,2.112-8.099,5.621-10.38l0.412-0.275l0.348-0.348c0.009-0.009,2.914-2.932,6.962-6.944
		c1.869-0.303,17.534-15.071,18.629-16.032l15.904,11.973h-0.009l3.238,2.218l17.69,12.111
		C103.604,413.865,100.581,420.369,97.869,425.949z M132.612,381.544c3.853-5.625,7.311-10.681,7.311-10.681L97.64,341.922
		l3.413-11.397l45.746,31.24c0.586-0.87,1.475-2.134,2.63-3.747l4.956,3.83l18.158,14.072c-11.314,6.706-20.187,8.95-26.897,8.941
		C140.253,384.843,136.025,383.468,132.612,381.544z M182.298,406.94c-13.59-0.074-20.806-4.801-25.244-9.336
		c-0.545-0.558-0.907-1.108-1.36-1.658c8.058-1.704,17.076-5.524,27.14-12.066l9.432,7.302c3.55,4.581,7.219,8.722,11.016,12.514
		C195.01,406.004,188.065,406.94,182.298,406.94z M496.124,439.022l-73.564-7.503l-0.641,0.073c-0.009,0-2.034,0.21-5.707,0.54
		c-11.021,1.007-36.609,3.023-63.913,3.023c-18.19,0.009-37.167-0.898-52.915-3.518h0.004c-22.504-3.756-41.004-8.044-56.753-15.263
		c-15.748-7.237-28.894-17.296-41.234-33.318l-0.485-0.632l-37.446-28.986l-53.428-41.28l-5.814-4.48l-3.962-4.077l0.036,0.037
		c-4.32-4.526-6.537-10.352-6.537-16.252c0-4.132,1.086-8.263,3.33-12.001l6.33-10.563l-0.124,0.211
		c3.436-5.625,8.892-9.564,15.3-10.865l0.054-0.019c1.576-0.329,3.129-0.494,4.664-0.494c2.07,0,4.099,0.294,6.106,0.87l0.178,0.046
		l0.014,0.008c2.547,0.651,4.988,1.824,7.347,3.473l0.311,0.219l6.697,3.555l62.617,33.108l12.788,6.77l34.799-1.86l-0.65-12.202
		l-31.423,1.685l-9.803-5.194l-5.858-3.096c33.901-45.504,82.14-112.399,111.996-153.789c2.854,1.557,5.68,3.188,8.406,4.929
		l0.022,0.018c12.762,8.098,23.76,18.176,29.38,27.612l0.21,0.348l93.504,118.436l46.163,3.848V439.022z" style="fill: rgb(75, 75, 75);"></path>
	<path class="st0" d="M43.799,427.479c-2.464,3.591-1.543,8.502,2.057,10.975c3.6,2.456,8.515,1.54,10.984-2.061
		c2.46-3.601,1.543-8.511-2.057-10.984C51.179,422.934,46.259,423.869,43.799,427.479z" style="fill: rgb(75, 75, 75);"></path>
</g>
</svg>
